# xmcd CD database file
# Copyright (C) 1993-1998 Ti Kan
# 
# Track frame offsets:
#     150
#     15800
#     33575
#     55545
#     71780
#     83682
#     110465
#     126855
#     142375
#     160917
#     178475
#     192885
#     214540
# 
# Disc length: 2979 seconds
# 
# Revision: 1
# Processed by: cddbd v1.4b41PL1 Copyright (c) Steve Scherf et al.
# Submitted via: DiscPlay 4.0.4
# 
DISCID=b50ba10d
DTITLE=Ernie Sites - Saddlebags And Wishes
DYEAR=1900
DGENRE=
TTITLE0=Saddle Bags And Wishes
TTITLE1=Trailin' Back To Old Mexico
TTITLE2=Springtime Comes Late To Idaho
TTITLE3=The Life Of A Cowboy
TTITLE4=Survival
TTITLE5=Prairie Storm
TTITLE6=Little Cow Poke
TTITLE7=Evening Ride
TTITLE8=Sagebrush Boogie
TTITLE9=Moonlight On the Snake
TTITLE10=Bandit Joe
TTITLE11=You'll Be My Everything
TTITLE12=The Winning Buckle-- Rodeo Poem
EXTD=
EXTT0=
EXTT1=
EXTT2=
EXTT3=
EXTT4=
EXTT5=
EXTT6=
EXTT7=
EXTT8=
EXTT9=
EXTT10=
EXTT11=
EXTT12=
PLAYORDER=
